<?xml version="1.0" encoding="UTF-8"?>
<svg xmlns="http://www.w3.org/2000/svg" viewBox="0 0 300 300">
  <defs>
    <style>
      .cls-1 {
        fill: #121214;
      }

      .cls-1, .cls-2 {
        stroke-width: 0px;
      }

      .cls-2 {
        fill: #c4b5fd;
      }
    </style>
  </defs>
  <g id="Layer_1" data-name="Layer 1">
    <rect class="cls-1" width="300" height="300" rx="60.96" ry="60.96"/>
  </g>
  <g id="Layer_2" data-name="Layer 2">
    <path class="cls-2" d="m176.98,138.63l51.98-64.53c1.27-1.65.1-4.04-1.99-4.04h-37.1c-.8,0-1.55.38-2.02,1.03l-28.99,39.71c-2.13,2.97-4.05,5.82-5.75,8.57-.56.89-1.06,1.72-1.5,2.49-.96,1.63-3.3,1.66-4.29.04-.48-.77-1-1.62-1.57-2.53-1.71-2.75-3.62-5.6-5.75-8.57l-28.67-39.7c-.47-.65-1.23-1.04-2.03-1.04h-38.4c-2.08,0-3.25,2.38-1.99,4.03l56.48,73.68c.7.9.69,2.16-.01,3.06l-60.26,77.68c-1.28,1.64-.11,4.04,1.98,4.04h37.11c.79,0,1.54-.38,2.01-1.02l32.5-43.94c2.13-2.97,4.05-5.86,5.75-8.68.62-1.03,1.19-1.98,1.7-2.85.96-1.63,3.32-1.65,4.3-.02.55.9,1.16,1.9,1.84,2.98,1.81,2.9,3.78,5.75,5.91,8.57l32.19,43.93c.47.65,1.22,1.03,2.02,1.03h38.4c2.08,0,3.25-2.39,1.98-4.04l-54.24-70.46c-.67-.88-1.85-1.2-2.89-.8l-12.09,4.67c-2.61,1.01-4.66-2.37-2.56-4.22"/>
  </g>
</svg>